The Count of Monte Cristo (2002) 1080p mkv x264 ac3+dts MultiSubs
.
Subs: Dutch, Greek, English FHI, English Normal, Finnish, Brazilian, Romanian, Spanish.
.
[IMG]http://img163.imageshack.us/img163/4452/56729973.jpg[/IMG]
.
Verenigd Koninkrijk / Verenigde Staten / Ierland
Avontuur / Actie
131 minuten

geregisseerd door Kevin Reynolds
met James Caviezel, Guy Pearce en Richard Harris

De schipper Edmond Dantes wordt onterecht veroordeeld van verraad na een brief aangenomen te hebben van de verbannen Napoleon. Zijn 'beste vriend' Fernand is verantwoordelijk voor het feit dat hij opgepakt wordt, aangezien hij uit is op de verloofde van Edmond. Dantes komt vast te zitten op het Chateau d'If, waar hij wraak zweert op de personen die verantwoordelijk zijn voor zijn arrestatie.
. 
http://www.moviemeter.nl/film/886
.
PLOT
.
A young man, falsely imprisoned by his jealous "friends," escapes and uses a hidden treasure to exact his revenge 
. 
http://www.imdb.com/title/tt0245844/
.
INFO
.
Source: Rerip-AMIABLE 1ste one has a glitch at 42m39s
.
Format                           : Matroska
Format version                   : Version 2
File size                        : 9.33 GiB
Duration                         : 2h 11mn
Overall bit rate                 : 10.2 Mbps
Encoded date                     : UTC 2012-02-18 21:42:24
Writing application              : mkvmerge v5.2.0 ('I can't explain') built on Dec 18 2011 18:12:03
Writing library                  : libebml v1.2.3 + libmatroska v1.3.0

Video
ID                               : 1
Format                           : AVC
Format/Info                      : Advanced Video Codec
Format profile                   : High@L4.1
Format settings, CABAC           : Yes
Format settings, ReFrames        : 4 frames
Codec ID                         : V_MPEG4/ISO/AVC
Duration                         : 2h 11mn
Bit rate                         : 8 032 Kbps
Width                            : 1 920 pixels
Height                           : 1 040 pixels
Display aspect ratio             : 16:9
Frame rate                       : 23.976 fps
Color space                      : YUV
Chroma subsampling               : 4:2:0
Bit depth                        : 8 bits
Scan type                        : Progressive
Bits/(Pixel*Frame)               : 0.168
Stream size                      : 7.18 GiB (77%)
Writing library                  : x264 core 116 r2074 2641b9e
Encoding settings                : cabac=1 / ref=4 / deblock=1:0:0 / analyse=0x3:0x113 / me=umh / subme=8 / psy=1 / psy_rd=1.00:0.00 / mixed_ref=1 / me_range=16 / chroma_me=1 / trellis=1 / 8x8dct=1 / cqm=0 / deadzone=21,11 / fast_pskip=1 / chroma_qp_offset=-2 / threads=12 / sliced_threads=0 / nr=0 / decimate=1 / interlaced=0 / bluray_compat=0 / constrained_intra=0 / bframes=3 / b_pyramid=2 / b_adapt=2 / b_bias=0 / direct=3 / weightb=1 / open_gop=0 / weightp=2 / keyint=240 / keyint_min=24 / scenecut=40 / intra_refresh=0 / rc_lookahead=50 / rc=2pass / mbtree=1 / bitrate=8032 / ratetol=1.0 / qcomp=0.60 / qpmin=0 / qpmax=69 / qpstep=4 / cplxblur=20.0 / qblur=0.5 / ip_ratio=1.40 / aq=1:1.00
Language                         : English
Default                          : Yes
Forced                           : No

Audio #1
ID                               : 2
Format                           : DTS
Format/Info                      : Digital Theater Systems
Codec ID                         : A_DTS
Duration                         : 2h 11mn
Bit rate mode                    : Constant
Bit rate                         : 1 510 Kbps
Channel(s)                       : 6 channels
Channel positions                : Front: L C R, Side: L R, LFE
Sampling rate                    : 48.0 KHz
Bit depth                        : 24 bits
Compression mode                 : Lossy
Stream size                      : 1.38 GiB (15%)
Title                            : DTS
Language                         : English
Default                          : Yes
Forced                           : No

Audio #2
ID                               : 3
Format                           : AC-3
Format/Info                      : Audio Coding 3
Mode extension                   : CM (complete main)
Codec ID                         : A_AC3
Duration                         : 2h 11mn
Bit rate mode                    : Constant
Bit rate                         : 640 Kbps
Channel(s)                       : 6 channels
Channel positions                : Front: L C R, Side: L R, LFE
Sampling rate                    : 48.0 KHz
Bit depth                        : 16 bits
Compression mode                 : Lossy
Stream size                      : 601 MiB (6%)
Title                            : AC3
Language                         : English
Default                          : No
Forced                           : No

Text #1
ID                               : 4
Format                           : UTF-8
Codec ID                         : S_TEXT/UTF8
Codec ID/Info                    : UTF-8 Plain Text
Language                         : Dutch
Default                          : No
Forced                           : No

Text #2
ID                               : 5
Format                           : UTF-8
Codec ID                         : S_TEXT/UTF8
Codec ID/Info                    : UTF-8 Plain Text
Language                         : Greek
Default                          : No
Forced                           : No

Text #3
ID                               : 6
Format                           : UTF-8
Codec ID                         : S_TEXT/UTF8
Codec ID/Info                    : UTF-8 Plain Text
Title                            : Eng FHI
Language                         : English
Default                          : No
Forced                           : No

Text #4
ID                               : 7
Format                           : UTF-8
Codec ID                         : S_TEXT/UTF8
Codec ID/Info                    : UTF-8 Plain Text
Title                            : English Normal
Language                         : English
Default                          : No
Forced                           : No

Text #5
ID                               : 8
Format                           : UTF-8
Codec ID                         : S_TEXT/UTF8
Codec ID/Info                    : UTF-8 Plain Text
Language                         : Finnish
Default                          : No
Forced                           : No

Text #6
ID                               : 9
Format                           : UTF-8
Codec ID                         : S_TEXT/UTF8
Codec ID/Info                    : UTF-8 Plain Text
Title                            : BRAZILIAN
Default                          : No
Forced                           : No

Text #7
ID                               : 10
Format                           : UTF-8
Codec ID                         : S_TEXT/UTF8
Codec ID/Info                    : UTF-8 Plain Text
Language                         : Romanian
Default                          : No
Forced                           : No

Text #8
ID                               : 11
Format                           : UTF-8
Codec ID                         : S_TEXT/UTF8
Codec ID/Info                    : UTF-8 Plain Text
Language                         : Spanish
Default                          : No
Forced                           : No

Menu
00:00:00.000                     : en:00:00:00.000
00:06:15.125                     : en:00:06:15.125
00:09:04.252                     : en:00:09:04.252
00:13:55.626                     : en:00:13:55.626
00:16:10.261                     : en:00:16:10.261
00:21:20.654                     : en:00:21:20.654
00:26:52.444                     : en:00:26:52.444
00:30:35.125                     : en:00:30:35.125
00:33:14.492                     : en:00:33:14.492
00:36:23.765                     : en:00:36:23.765
00:42:04.605                     : en:00:42:04.605
00:46:05.346                     : en:00:46:05.346
00:50:56.303                     : en:00:50:56.303
00:56:43.400                     : en:00:56:43.400
01:00:47.227                     : en:01:00:47.227
01:05:06.611                     : en:01:05:06.611
01:10:53.708                     : en:01:10:53.708
01:15:16.512                     : en:01:15:16.512
01:19:23.968                     : en:01:19:23.968
01:23:14.823                     : en:01:23:14.823
01:28:01.276                     : en:01:28:01.276
01:34:09.727                     : en:01:34:09.727
01:38:24.607                     : en:01:38:24.607
01:41:44.807                     : en:01:41:44.807
01:43:56.981                     : en:01:43:56.981
01:49:40.282                     : en:01:49:40.282
01:56:08.962                     : en:01:56:08.962
02:02:01.814                     : en:02:02:01.814
02:05:48.791                     : en:02:05:48.791
.
Enjoy

